<?xml version="1.0" encoding="UTF-8" standalone="no"?>
<svg
   version="1.1"
   viewBox="0.00 0.00 32.00 32.00"
   id="svg20"
   sodipodi:docname="Boolean.svg"
   inkscape:version="1.3.2 (091e20ef0f, 2023-11-25, custom)"
   xmlns:inkscape="http://www.inkscape.org/namespaces/inkscape"
   xmlns:sodipodi="http://sodipodi.sourceforge.net/DTD/sodipodi-0.dtd"
   xmlns="http://www.w3.org/2000/svg"
   xmlns:svg="http://www.w3.org/2000/svg">
  <defs
     id="defs20" />
  <sodipodi:namedview
     id="namedview20"
     pagecolor="#ffffff"
     bordercolor="#000000"
     borderopacity="0.25"
     inkscape:showpageshadow="2"
     inkscape:pageopacity="0.0"
     inkscape:pagecheckerboard="0"
     inkscape:deskcolor="#d1d1d1"
     inkscape:zoom="34.84375"
     inkscape:cx="16"
     inkscape:cy="16"
     inkscape:window-width="2560"
     inkscape:window-height="1319"
     inkscape:window-x="1920"
     inkscape:window-y="60"
     inkscape:window-maximized="1"
     inkscape:current-layer="g13" />
  <g
     stroke-width="2.00"
     fill="none"
     stroke-linecap="butt"
     id="g13">
    <path
       stroke="#43411b"
       vector-effect="non-scaling-stroke"
       d="   M 31.25 0.00   L 29.54 1.90"
       id="path1" />
    <path
       stroke="#5c492c"
       vector-effect="non-scaling-stroke"
       d="   M 29.54 1.90   Q 29.08 2.03 29.08 2.26"
       id="path2" />
    <path
       stroke="#0e9f33"
       vector-effect="non-scaling-stroke"
       d="   M 29.08 2.26   Q 28.97 2.16 28.91 2.05   Q 28.79 1.80 28.51 1.80   L 2.35 2.10   A 0.37 0.37 0.0 0 0 1.98 2.47   L 1.96 28.88   Q 1.96 28.97 2.04 29.02   Q 2.13 29.07 2.27 29.14"
       id="path3" />
    <path
       stroke="#5c492c"
       vector-effect="non-scaling-stroke"
       d="   M 2.27 29.14   Q 2.18 29.00 1.92 29.51"
       id="path4" />
    <path
       stroke="#43411b"
       vector-effect="non-scaling-stroke"
       d="   M 1.92 29.51   L 0.00 31.38"
       id="path5" />
    <path
       stroke="#980c1c"
       vector-effect="non-scaling-stroke"
       d="   M 1.92 29.51   Q 1.78 30.11 2.25 30.13   Q 10.00 30.33 17.75 30.13   Q 19.12 30.10 19.46 29.30"
       id="path6" />
    <path
       stroke="#bf8285"
       vector-effect="non-scaling-stroke"
       d="   M 19.46 29.30   L 21.86 29.18"
       id="path7" />
    <path
       stroke="#980c1c"
       vector-effect="non-scaling-stroke"
       d="   M 21.86 29.18   L 22.18 29.67   Q 22.43 30.05 22.89 30.07   L 29.61 30.34   A 0.62 0.62 0.0 0 0 30.26 29.71   Q 30.07 16.86 30.18 2.78   Q 30.18 2.08 29.54 1.90"
       id="path8" />
    <path
       stroke="#646a33"
       vector-effect="non-scaling-stroke"
       d="   M 29.08 2.26   L 2.27 29.14"
       id="path9" />
    <path
       stroke="#349347"
       vector-effect="non-scaling-stroke"
       d="   M 8.35 16.99   Q 9.30 18.24 11.08 17.90   A 1.21 1.20 84.6 0 0 12.07 16.70   L 11.96 7.61   A 0.74 0.74 0.0 0 1 12.70 6.86   Q 13.98 6.85 15.19 6.76   Q 15.90 6.71 16.18 6.33   Q 16.66 5.67 15.54 5.02"
       id="path10" />
    <path
       stroke="#8bdf9d"
       vector-effect="non-scaling-stroke"
       d="   M 15.54 5.02   Q 15.42 4.41 15.17 3.97   Q 14.93 3.57 14.47 3.57   L 4.74 3.55   A 0.72 0.72 0.0 0 0 4.01 4.26   L 3.99 5.34   Q 3.98 5.94 4.59 5.94   L 7.78 5.96   Q 8.30 5.96 8.30 6.48   L 8.35 16.99"
       id="path11" />
    <path
       stroke="#a9b3a9"
       vector-effect="non-scaling-stroke"
       d="m 15.54,5.02 q 0.1,0.81 -0.67,0.86 -1.64,0.11 -3.3,0.06 a 0.6,0.6 0 0 0 -0.62,0.6 v 9.79 A 0.7,0.68 82.3 0 1 10.45,17 Q 9.6,17.26 8.35,16.99"
       id="path12"
       style="display:inline" />
    <path
       stroke="#d88a96"
       vector-effect="non-scaling-stroke"
       d="m 21.86,29.18 -0.03,-5.36 a 0.66,0.66 0 0 1 0.67,-0.66 l 3.1,0.02 q 1.03,0 1.08,-1.03 l 0.03,-0.42 q 0.04,-0.76 -0.73,-0.79 l -3.49,-0.17 q -0.5,-0.02 -0.5,-0.53 L 21.96,18.5 q -0.01,-0.54 0.54,-0.53 l 5.29,0.12 q 0.65,0.01 0.59,-0.63 L 28.29,16.49 Q 28.2,15.55 27.24,15.55 l -7.47,0.01 q -0.5,0 -0.49,0.49 l 0.18,13.25"
       id="path13"
       style="display:inline" />
  </g>
  <path
     fill="#067e2b"
     d="M 0,0 H 31.25 L 29.54,1.9 Q 29.08,2.03 29.08,2.26 28.97,2.16 28.91,2.05 28.79,1.8 28.51,1.8 L 2.35,2.1 A 0.37,0.37 0 0 0 1.98,2.47 L 1.96,28.88 q 0,0.09 0.08,0.14 0.09,0.05 0.23,0.12 Q 2.18,29 1.92,29.51 L 0,31.38 Z"
     id="path14"
     style="display:inline" />
  <path
     fill="#7f040b"
     d="M 31.25,0 H 32 V 32 H 0 v -0.62 l 1.92,-1.87 q -0.14,0.6 0.33,0.62 7.75,0.2 15.5,0 1.37,-0.03 1.71,-0.83 l 2.4,-0.12 0.32,0.49 q 0.25,0.38 0.71,0.4 l 6.72,0.27 a 0.62,0.62 0 0 0 0.65,-0.63 Q 30.07,16.86 30.18,2.78 q 0,-0.7 -0.64,-0.88 z"
     id="path15"
     style="display:inline" />
  <path
     fill="#16bf3a"
     d="M 29.08,2.26 2.27,29.14 Q 2.13,29.07 2.04,29.02 1.96,28.97 1.96,28.88 L 1.98,2.47 A 0.37,0.37 0 0 1 2.35,2.1 L 28.51,1.8 q 0.28,0 0.4,0.25 0.06,0.11 0.17,0.21 z M 8.35,16.99 q 0.95,1.25 2.73,0.91 a 1.21,1.2 84.6 0 0 0.99,-1.2 L 11.96,7.61 A 0.74,0.74 0 0 1 12.7,6.86 Q 13.98,6.85 15.19,6.76 15.9,6.71 16.18,6.33 16.66,5.67 15.54,5.02 15.42,4.41 15.17,3.97 14.93,3.57 14.47,3.57 L 4.74,3.55 A 0.72,0.72 0 0 0 4.01,4.26 L 3.99,5.34 q -0.01,0.6 0.6,0.6 l 3.19,0.02 q 0.52,0 0.52,0.52 z"
     id="path16"
     style="display:inline" />
  <path
     fill="#b1142c"
     d="m 29.54,1.9 q 0.64,0.18 0.64,0.88 -0.11,14.08 0.08,26.93 a 0.62,0.62 0 0 1 -0.65,0.63 l -6.72,-0.27 q -0.46,-0.02 -0.71,-0.4 l -0.32,-0.49 -0.03,-5.36 a 0.66,0.66 0 0 1 0.67,-0.66 l 3.1,0.02 q 1.03,0 1.08,-1.03 l 0.03,-0.42 q 0.04,-0.76 -0.73,-0.79 l -3.49,-0.17 q -0.5,-0.02 -0.5,-0.53 L 21.96,18.5 q -0.01,-0.54 0.54,-0.53 l 5.29,0.12 q 0.65,0.01 0.59,-0.63 L 28.29,16.49 Q 28.2,15.55 27.24,15.55 l -7.47,0.01 q -0.5,0 -0.49,0.49 l 0.18,13.25 q -0.34,0.8 -1.71,0.83 -7.75,0.2 -15.5,0 Q 1.78,30.11 1.92,29.51 2.18,29 2.27,29.14 L 29.08,2.26 q 0,-0.23 0.46,-0.36 z"
     id="path17"
     style="display:inline" />
  <path
     fill="#ffffff"
     d="m 15.54,5.02 q 0.1,0.81 -0.67,0.86 -1.64,0.11 -3.3,0.06 a 0.6,0.6 0 0 0 -0.62,0.6 v 9.79 A 0.7,0.68 82.3 0 1 10.45,17 Q 9.6,17.26 8.35,16.99 L 8.3,6.48 Q 8.3,5.96 7.78,5.96 L 4.59,5.94 q -0.61,0 -0.6,-0.6 L 4.01,4.26 A 0.72,0.72 0 0 1 4.74,3.55 l 9.73,0.02 q 0.46,0 0.7,0.4 0.25,0.44 0.37,1.05 z"
     id="path18"
     style="display:inline" />
  <path
     fill="#526653"
     d="m 15.54,5.02 q 1.12,0.65 0.64,1.31 -0.28,0.38 -0.99,0.43 -1.21,0.09 -2.49,0.1 a 0.74,0.74 0 0 0 -0.74,0.75 l 0.11,9.09 a 1.21,1.2 84.6 0 1 -0.99,1.2 Q 9.3,18.24 8.35,16.99 9.6,17.26 10.45,17 a 0.7,0.68 82.3 0 0 0.5,-0.67 V 6.54 a 0.6,0.6 0 0 1 0.62,-0.6 q 1.66,0.05 3.3,-0.06 0.77,-0.05 0.67,-0.86 z"
     id="path19"
     style="display:inline" />
  <path
     fill="#ffffff"
     d="   M 21.86 29.18   L 19.46 29.30   L 19.28 16.05   Q 19.27 15.56 19.77 15.56   L 27.24 15.55   Q 28.20 15.55 28.29 16.49   L 28.38 17.46   Q 28.44 18.10 27.79 18.09   L 22.50 17.97   Q 21.95 17.96 21.96 18.50   L 21.99 20.24   Q 21.99 20.75 22.49 20.77   L 25.98 20.94   Q 26.75 20.97 26.71 21.73   L 26.68 22.15   Q 26.63 23.18 25.60 23.18   L 22.50 23.16   A 0.66 0.66 0.0 0 0 21.83 23.82   L 21.86 29.18   Z"
     id="path20"
     style="opacity:1" />
</svg>
